<mxfile host="65bd71144e">
    <diagram id="BpZ5Loo_GtrI-DIYOTjw" name="Page-1">
        <mxGraphModel dx="3310" dy="2977" grid="1" gridSize="10" guides="1" tooltips="1" connect="1" arrows="1" fold="1" page="1" pageScale="1" pageWidth="850" pageHeight="1100" math="0" shadow="0">
            <root>
                <mxCell id="0"/>
                <mxCell id="1" parent="0"/>
                <mxCell id="45" value="2 comsumer khác nhau trong cùng 1 group thì không thể đọc cùng relicas leader" style="text;html=1;align=center;verticalAlign=middle;resizable=0;points=[];autosize=1;strokeColor=none;fillColor=none;" parent="1" vertex="1">
                    <mxGeometry x="125" y="575" width="450" height="30" as="geometry"/>
                </mxCell>
                <mxCell id="56" value="consumer group" style="swimlane;whiteSpace=wrap;html=1;" parent="1" vertex="1">
                    <mxGeometry x="1090" y="-790" width="850" height="1000" as="geometry"/>
                </mxCell>
                <mxCell id="47" value="notification-service-group-email" style="swimlane;whiteSpace=wrap;html=1;" parent="56" vertex="1">
                    <mxGeometry x="180" y="90" width="200" height="200" as="geometry"/>
                </mxCell>
                <mxCell id="48" value="notification-service-group-dealer-registration" style="swimlane;whiteSpace=wrap;html=1;startSize=23;" parent="56" vertex="1">
                    <mxGeometry x="180" y="390" width="200" height="200" as="geometry"/>
                </mxCell>
                <mxCell id="49" value="notification-service-group-password-reset" style="swimlane;whiteSpace=wrap;html=1;startSize=23;" parent="56" vertex="1">
                    <mxGeometry x="460" y="680" width="200" height="200" as="geometry"/>
                </mxCell>
                <mxCell id="50" value="notification-service-group-login-confirmed" style="swimlane;whiteSpace=wrap;html=1;startSize=23;" parent="56" vertex="1">
                    <mxGeometry x="460" y="390" width="200" height="200" as="geometry"/>
                </mxCell>
                <mxCell id="51" value="notification-service-group-login" style="swimlane;whiteSpace=wrap;html=1;startSize=23;" parent="56" vertex="1">
                    <mxGeometry x="460" y="90" width="200" height="200" as="geometry"/>
                </mxCell>
                <mxCell id="52" value="notification-service-group-order" style="swimlane;whiteSpace=wrap;html=1;startSize=23;" parent="56" vertex="1">
                    <mxGeometry x="180" y="680" width="200" height="200" as="geometry"/>
                </mxCell>
                <mxCell id="57" value="topic" style="swimlane;whiteSpace=wrap;html=1;" parent="1" vertex="1">
                    <mxGeometry x="80" y="-690" width="850" height="610" as="geometry"/>
                </mxCell>
                <mxCell id="6" value="email-notifications" style="swimlane;whiteSpace=wrap;html=1;" parent="57" vertex="1">
                    <mxGeometry x="65" y="60" width="200" height="200" as="geometry"/>
                </mxCell>
                <mxCell id="38" value="3 patition" style="text;html=1;align=center;verticalAlign=middle;resizable=0;points=[];autosize=1;strokeColor=none;fillColor=none;" parent="6" vertex="1">
                    <mxGeometry x="65" y="85" width="70" height="30" as="geometry"/>
                </mxCell>
                <mxCell id="7" value="dealer-registration-notifications" style="swimlane;whiteSpace=wrap;html=1;" parent="57" vertex="1">
                    <mxGeometry x="325" y="60" width="200" height="200" as="geometry"/>
                </mxCell>
                <mxCell id="37" value="3 patition" style="text;html=1;align=center;verticalAlign=middle;resizable=0;points=[];autosize=1;strokeColor=none;fillColor=none;" parent="7" vertex="1">
                    <mxGeometry x="60" y="85" width="70" height="30" as="geometry"/>
                </mxCell>
                <mxCell id="8" value="password-reset-notifications" style="swimlane;whiteSpace=wrap;html=1;" parent="57" vertex="1">
                    <mxGeometry x="575" y="350" width="200" height="200" as="geometry"/>
                </mxCell>
                <mxCell id="33" value="3 patition" style="text;html=1;align=center;verticalAlign=middle;resizable=0;points=[];autosize=1;strokeColor=none;fillColor=none;" parent="8" vertex="1">
                    <mxGeometry x="65" y="85" width="70" height="30" as="geometry"/>
                </mxCell>
                <mxCell id="9" value="order-notifications" style="swimlane;whiteSpace=wrap;html=1;" parent="57" vertex="1">
                    <mxGeometry x="575" y="50" width="200" height="200" as="geometry"/>
                </mxCell>
                <mxCell id="36" value="3 patition" style="text;html=1;align=center;verticalAlign=middle;resizable=0;points=[];autosize=1;strokeColor=none;fillColor=none;" parent="9" vertex="1">
                    <mxGeometry x="65" y="85" width="70" height="30" as="geometry"/>
                </mxCell>
                <mxCell id="10" value="login-confirmed-notifications" style="swimlane;whiteSpace=wrap;html=1;" parent="57" vertex="1">
                    <mxGeometry x="325" y="350" width="200" height="200" as="geometry"/>
                </mxCell>
                <mxCell id="34" value="3 patition" style="text;html=1;align=center;verticalAlign=middle;resizable=0;points=[];autosize=1;strokeColor=none;fillColor=none;" parent="10" vertex="1">
                    <mxGeometry x="65" y="75" width="70" height="30" as="geometry"/>
                </mxCell>
                <mxCell id="11" value="login-confirmation-notifications" style="swimlane;whiteSpace=wrap;html=1;" parent="57" vertex="1">
                    <mxGeometry x="65" y="350" width="200" height="200" as="geometry"/>
                </mxCell>
                <mxCell id="35" value="3 patition" style="text;html=1;align=center;verticalAlign=middle;resizable=0;points=[];autosize=1;strokeColor=none;fillColor=none;" parent="11" vertex="1">
                    <mxGeometry x="65" y="80" width="70" height="30" as="geometry"/>
                </mxCell>
                <mxCell id="58" value="kafka" style="swimlane;whiteSpace=wrap;html=1;" parent="1" vertex="1">
                    <mxGeometry x="320" y="100" width="720" height="250" as="geometry"/>
                </mxCell>
                <mxCell id="30" value="broker 0" style="swimlane;whiteSpace=wrap;html=1;" parent="58" vertex="1">
                    <mxGeometry x="30" y="40" width="200" height="200" as="geometry"/>
                </mxCell>
                <mxCell id="43" value="6 leader" style="text;html=1;align=center;verticalAlign=middle;resizable=0;points=[];autosize=1;strokeColor=none;fillColor=none;" parent="30" vertex="1">
                    <mxGeometry x="65" y="70" width="70" height="30" as="geometry"/>
                </mxCell>
                <mxCell id="44" value="12 follower" style="text;html=1;align=center;verticalAlign=middle;resizable=0;points=[];autosize=1;strokeColor=none;fillColor=none;" parent="30" vertex="1">
                    <mxGeometry x="60" y="112" width="80" height="30" as="geometry"/>
                </mxCell>
                <mxCell id="31" value="broker 1" style="swimlane;whiteSpace=wrap;html=1;" parent="58" vertex="1">
                    <mxGeometry x="260" y="40" width="200" height="200" as="geometry"/>
                </mxCell>
                <mxCell id="41" value="6 leader" style="text;html=1;align=center;verticalAlign=middle;resizable=0;points=[];autosize=1;strokeColor=none;fillColor=none;" parent="31" vertex="1">
                    <mxGeometry x="60" y="70" width="70" height="30" as="geometry"/>
                </mxCell>
                <mxCell id="42" value="12 follower" style="text;html=1;align=center;verticalAlign=middle;resizable=0;points=[];autosize=1;strokeColor=none;fillColor=none;" parent="31" vertex="1">
                    <mxGeometry x="55" y="112" width="80" height="30" as="geometry"/>
                </mxCell>
                <mxCell id="32" value="broker 2" style="swimlane;whiteSpace=wrap;html=1;" parent="58" vertex="1">
                    <mxGeometry x="490" y="40" width="200" height="200" as="geometry"/>
                </mxCell>
                <mxCell id="39" value="6 leader" style="text;html=1;align=center;verticalAlign=middle;resizable=0;points=[];autosize=1;strokeColor=none;fillColor=none;" parent="32" vertex="1">
                    <mxGeometry x="65" y="70" width="70" height="30" as="geometry"/>
                </mxCell>
                <mxCell id="40" value="12 follower" style="text;html=1;align=center;verticalAlign=middle;resizable=0;points=[];autosize=1;strokeColor=none;fillColor=none;" parent="32" vertex="1">
                    <mxGeometry x="60" y="112" width="80" height="30" as="geometry"/>
                </mxCell>
                <mxCell id="59" value="zookeeper" style="swimlane;whiteSpace=wrap;html=1;" parent="1" vertex="1">
                    <mxGeometry x="790" y="430" width="720" height="270" as="geometry"/>
                </mxCell>
                <mxCell id="55" value="zookeeper 0" style="swimlane;whiteSpace=wrap;html=1;" parent="59" vertex="1">
                    <mxGeometry x="35" y="50" width="200" height="200" as="geometry"/>
                </mxCell>
                <mxCell id="54" value="&lt;span style=&quot;color: rgb(0, 0, 0);&quot;&gt;zookeeper 1&lt;/span&gt;" style="swimlane;whiteSpace=wrap;html=1;" parent="59" vertex="1">
                    <mxGeometry x="265" y="50" width="200" height="200" as="geometry"/>
                </mxCell>
                <mxCell id="53" value="&lt;span style=&quot;color: rgb(0, 0, 0);&quot;&gt;zookeeper 2&lt;/span&gt;" style="swimlane;whiteSpace=wrap;html=1;" parent="59" vertex="1">
                    <mxGeometry x="495" y="50" width="200" height="200" as="geometry"/>
                </mxCell>
                <mxCell id="60" value="producer" style="swimlane;whiteSpace=wrap;html=1;" parent="1" vertex="1">
                    <mxGeometry x="-430" y="-470" width="200" height="200" as="geometry"/>
                </mxCell>
                <mxCell id="61" value="số lượng producer của 1 service bằng với số lượng instance của service có cấu hình producer config&amp;nbsp;" style="text;html=1;align=center;verticalAlign=middle;resizable=0;points=[];autosize=1;strokeColor=none;fillColor=none;" parent="1" vertex="1">
                    <mxGeometry x="125" y="535" width="560" height="30" as="geometry"/>
                </mxCell>
                <mxCell id="62" value="Số lượng consumer trong 1 group bằng với số lượng instance của service có cấu hình kafkaConsumerConfig" style="text;html=1;align=center;verticalAlign=middle;resizable=0;points=[];autosize=1;strokeColor=none;fillColor=none;" parent="1" vertex="1">
                    <mxGeometry x="125" y="495" width="600" height="30" as="geometry"/>
                </mxCell>
            </root>
        </mxGraphModel>
    </diagram>
</mxfile>